# xmcd
#
# Track frame offsets:
#	150
#	12450
#	21737
#	42460
#	50795
#	59122
#	78102
#	101320
#	125520
#	132140
#	142280
#	185947
#	205265
#	222230
#	234117
#	244415
#	294395
#	316027
#
# Disc length: 4678 seconds
#
# Revision: 1
# Processed by: cddbd v1.5.2PL0 Copyright (c) Steve Scherf et al.
# Submitted via: EZCDAudioConverter 8.3.1.1
#
DISCID=19124412
DTITLE=Franz Schubert - Concert above the Clouds
DYEAR=1900
DGENRE=Romantic
TTITLE0=An die Musik D575
TTITLE1=Heidenröslein D257
TTITLE2=Der Lindenbaum D911/5
TTITLE3=Moment Musical f-minor D780/3
TTITLE4=An die Laute D905
TTITLE5=Die Taubenpost (flute) D965
TTITLE6=Wiener Damenländler D734
TTITLE7=Ständchen (flute) D957
TTITLE8=Liebhaber in allen Gestalten D558
TTITLE9=Seligkeit D433
TTITLE10=Ihr Blümlein alle (Var. f. Flute and Piano) D802
TTITLE11=Im Frühling (flute) D882
TTITLE12=Auf dem Wasser zu singen D774
TTITLE13=Ich hört ein Bächlein rauschen D795/2
TTITLE14=Die Forelle D550
TTITLE15=Der Hirt auf dem Felsen D965
TTITLE16=Andante (Sonata f. Flute and Piano) D384
TTITLE17=Impromptu a-flat minor op. 90/4 D899/4
EXTD=
EXTT0=
EXTT1=
EXTT2=
EXTT3=
EXTT4=
EXTT5=
EXTT6=
EXTT7=
EXTT8=
EXTT9=
EXTT10=
EXTT11=
EXTT12=
EXTT13=
EXTT14=
EXTT15=
EXTT16=
EXTT17=
PLAYORDER=
